<?xml version="1.0" standalone="no"?>
<!DOCTYPE svg PUBLIC "-//W3C//DTD SVG 20010904//EN"
 "http://www.w3.org/TR/2001/REC-SVG-20010904/DTD/svg10.dtd">
<svg version="1.0" xmlns="http://www.w3.org/2000/svg"
 width="737.000000pt" height="737.000000pt" viewBox="0 0 737.000000 737.000000"
 preserveAspectRatio="xMidYMid meet">
<metadata>
Created by potrace 1.11, written by Peter Selinger 2001-2013
</metadata>
<g transform="translate(0.000000,737.000000) scale(0.100000,-0.100000)"
fill="#000000" stroke="none">
<path d="M474 7350 c-5 -5 -20 -11 -34 -13 -70 -11 -182 -73 -249 -137 -86
-81 -129 -150 -168 -270 -17 -53 -18 -196 -18 -3240 l0 -3185 25 -77 c13 -43
28 -78 32 -78 5 0 8 -5 8 -10 0 -22 57 -98 117 -155 64 -63 150 -112 243 -142
52 -17 224 -18 3245 -18 1755 0 3206 3 3226 7 69 14 168 59 224 101 50 38 134
125 146 152 5 11 19 36 31 55 11 19 32 69 44 110 l24 74 0 3168 c0 1742 -4
3168 -8 3168 -5 0 -8 10 -7 23 5 63 -69 207 -147 289 -65 67 -105 96 -181 132
-127 59 90 56 -3368 56 -1934 0 -3179 -4 -3185 -10z"/>
</g>
</svg>
