<?xml version="1.0" encoding="UTF-8"?>
<!DOCTYPE svg PUBLIC "-//W3C//DTD SVG 1.1//EN" "http://www.w3.org/Graphics/SVG/1.1/DTD/svg11.dtd">
<!-- Creator: CorelDRAW 2020 (64-Bit) -->
<svg xmlns="http://www.w3.org/2000/svg" xml:space="preserve" width="1.89354in" height="0.304161in" version="1.1" style="shape-rendering:geometricPrecision; text-rendering:geometricPrecision; image-rendering:optimizeQuality; fill-rule:evenodd; clip-rule:evenodd"
viewBox="0 0 230.55 37.03"
 xmlns:xlink="http://www.w3.org/1999/xlink"
 xmlns:xodm="http://www.corel.com/coreldraw/odm/2003">
 <defs>
  <style type="text/css">
   <![CDATA[
    .fil2 {fill:#FEFEFE}
    .fil3 {fill:#434242}
    .fil1 {fill:#E31E24}
    .fil0 {fill:#FEFEFE;fill-rule:nonzero}
   ]]>
  </style>
 </defs>
 <g id="Layer_x0020_1">
  <metadata id="CorelCorpID_0Corel-Layer"/>
  <g id="_2408386961808">
   <path class="fil0" d="M0.18 14.86l0 0.96c2.53,0.16 2.82,0.29 2.82,3.29l0 13.16c0,2.77 -0.3,3.04 -3,3.27l0 0.96 9.52 0 0 -0.96c-3.1,-0.23 -3.39,-0.41 -3.39,-3.24l0 -5.06 2.54 0.64c0.37,0.02 1.07,0.02 1.59,-0.05 3.33,-0.38 6.64,-2.49 6.64,-6.86 0,-2.19 -0.86,-3.76 -2.23,-4.76 -1.36,-0.97 -3.32,-1.35 -5.76,-1.35l-8.75 0zm5.95 3.02c0,-0.94 0.13,-1.31 0.36,-1.53 0.23,-0.23 0.93,-0.41 1.87,-0.41 2.69,0 5.01,1.51 5.01,5.15 0,4.26 -2.68,5.41 -4.8,5.41 -1.07,0 -2.01,-0.26 -2.43,-0.41l0 -8.2z"/>
   <path class="fil0" d="M35.12 30.95c-0.57,1.59 -1.21,2.69 -1.84,3.33 -0.78,0.87 -1.98,1.07 -3.79,1.07 -1.34,0 -2.51,-0.06 -3.17,-0.43 -0.64,-0.34 -0.79,-0.99 -0.79,-2.81l0 -12.99c0,-2.92 0.32,-3.1 3,-3.28l0 -0.98 -9.23 0 0 0.98c2.82,0.18 3.05,0.39 3.05,3.28l0 13.1c0,2.93 -0.3,3.15 -3.21,3.35l0 0.94 15.73 0c0.34,-1.01 1.05,-4.22 1.28,-5.37l-1.03 -0.2z"/>
   <path class="fil0" d="M47.1 36.51l0 -0.96c-2.75,-0.2 -3.05,-0.41 -3.05,-3.28l0 -13.15c0,-2.89 0.3,-3.1 3.05,-3.28l0 -0.98 -9.3 0 0 0.98c2.78,0.18 3.07,0.38 3.07,3.28l0 13.15c0,2.87 -0.3,3.08 -3.07,3.28l0 0.96 9.3 0z"/>
   <path class="fil0" d="M73.42 14.86l-8.13 0 0 0.98c2.44,0.11 3.23,0.55 3.38,2.12 0.09,0.96 0.23,2.46 0.23,5.56l0 7.76 -0.09 0 -14.49 -16.42 -5.24 0 0 0.98c1.59,0.11 2.33,0.38 3.03,1.21 0.61,0.79 0.73,0.98 0.73,3.42l0 7.16c0,3.07 -0.14,4.64 -0.28,5.69 -0.16,1.66 -1.02,2.09 -2.98,2.23l0 0.96 8.15 0 0 -0.96c-2.34,-0.18 -3.11,-0.59 -3.27,-2.33 -0.09,-0.96 -0.23,-2.53 -0.23,-5.6l0.02 -8.14 0.05 0 14.94 17.36 1.09 0 0 -13.33c0,-3.1 0.09,-4.61 0.21,-5.68 0.16,-1.52 0.98,-1.91 2.87,-2l0 -0.98z"/>
   <path class="fil0" d="M94.87 20.11c-0.16,-2.01 -0.34,-4.57 -0.34,-6.08l-0.73 0c-0.52,0.64 -0.84,0.84 -1.77,0.84l-13.8 0c-1.01,0 -1.44,0 -1.94,-0.84l-0.73 0c-0.07,1.83 -0.23,4.03 -0.39,6.19l1.03 0c0.44,-1.57 0.73,-2.54 1.17,-3.12 0.46,-0.7 1.17,-1.02 4.14,-1.02l1.98 0 0 16.24c0,2.67 -0.3,3.03 -3.42,3.24l0 0.96 10.08 0 0 -0.96c-3.24,-0.2 -3.53,-0.59 -3.53,-3.24l0 -16.24 2.32 0c2.6,0 3.2,0.25 3.76,1.02 0.44,0.58 0.79,1.46 1.16,3.12l1.03 -0.11z"/>
   <path class="fil0" d="M121.25 14.86l-9.21 0 0 0.98c2.72,0.23 2.99,0.41 2.99,3.21l0 5.24 -11.72 0 0 -5.24c0,-2.83 0.27,-2.99 2.93,-3.21l0 -0.98 -9.17 0 0 0.98c2.82,0.23 3.07,0.38 3.07,3.21l0 13.25c0,2.83 -0.25,3.02 -2.98,3.24l0 0.96 9.26 0 0 -0.96c-2.83,-0.23 -3.1,-0.44 -3.1,-3.24l0 -6.52 11.72 0 0 6.52c0,2.83 -0.27,3.02 -3.22,3.24l0 0.96 9.44 0 0 -0.96c-2.8,-0.23 -3.1,-0.41 -3.1,-3.24l0 -13.25c0,-2.83 0.27,-2.99 3.1,-3.21l0 -0.98z"/>
   <path class="fil0" d="M136.68 19.89c-0.3,-2.16 -0.45,-3.52 -0.59,-4.7 -1.27,-0.45 -2.8,-0.84 -4.43,-0.84 -4.47,0 -7.15,2.75 -7.15,6.08 0,3.66 3.26,5.33 5.64,6.51 2.61,1.36 4.44,2.51 4.44,4.92 0,2.39 -1.46,3.91 -3.96,3.91 -3.51,0 -5.17,-3.48 -5.73,-5.6l-1.03 0.3c0.21,1.62 0.71,4.65 0.93,5.31 0.34,0.16 0.82,0.44 1.69,0.71 0.86,0.3 2.01,0.55 3.43,0.55 4.67,0 7.7,-2.85 7.7,-6.43 0,-3.66 -2.99,-5.24 -5.9,-6.65 -2.79,-1.34 -4.37,-2.48 -4.37,-4.82 0,-1.82 1.21,-3.62 3.78,-3.62 2.89,0 3.93,2.41 4.52,4.55l1.02 -0.18z"/>
   <path class="fil0" d="M159.17 20.11c-0.16,-2.01 -0.34,-4.57 -0.34,-6.08l-0.73 0c-0.52,0.64 -0.84,0.84 -1.77,0.84l-13.8 0c-1.01,0 -1.44,0 -1.94,-0.84l-0.73 0c-0.07,1.83 -0.23,4.03 -0.39,6.19l1.03 0c0.44,-1.57 0.73,-2.54 1.17,-3.12 0.46,-0.7 1.17,-1.02 4.14,-1.02l1.98 0 0 16.24c0,2.67 -0.3,3.03 -3.42,3.24l0 0.96 10.08 0 0 -0.96c-3.24,-0.2 -3.53,-0.59 -3.53,-3.24l0 -16.24 2.32 0c2.6,0 3.2,0.25 3.77,1.02 0.44,0.58 0.79,1.46 1.16,3.12l1.03 -0.11z"/>
   <path class="fil0" d="M210.83 14.86l-8.13 0 0 0.98c2.43,0.11 3.23,0.55 3.38,2.12 0.09,0.96 0.23,2.46 0.23,5.56l0 7.76 -0.09 0 -14.49 -16.42 -5.24 0 0 0.98c1.59,0.11 2.33,0.38 3.03,1.21 0.61,0.79 0.73,0.98 0.73,3.42l0 7.16c0,3.07 -0.14,4.64 -0.28,5.69 -0.16,1.66 -1.02,2.09 -2.98,2.23l0 0.96 8.15 0 0 -0.96c-2.34,-0.18 -3.11,-0.59 -3.27,-2.33 -0.09,-0.96 -0.23,-2.53 -0.23,-5.6l0.02 -8.14 0.05 0 14.94 17.36 1.09 0 0 -13.33c0,-3.1 0.09,-4.61 0.21,-5.68 0.16,-1.52 0.98,-1.91 2.87,-2l0 -0.98z"/>
   <path class="fil0" d="M229.5 30.98c-0.5,1.35 -1.14,2.52 -1.73,3.23 -0.77,0.87 -1.79,1.1 -4.27,1.1 -1.55,0 -2.82,0 -3.48,-0.39 -0.64,-0.41 -0.82,-1.17 -0.82,-2.75l0 -6.16 3.11 0c2.98,0 3.23,0.19 3.7,2.64l1.03 0 0 -6.55 -1.03 0c-0.43,2.26 -0.65,2.53 -3.7,2.53l-3.11 0 0 -7.46c0,-1 0.06,-1.09 1.18,-1.09l2.52 0c2.34,0 3.27,0.23 3.77,0.95 0.43,0.73 0.79,1.5 1.11,2.89l1.05 -0.14c-0.14,-1.87 -0.27,-4.06 -0.32,-4.92l-15.43 0 0 0.98c2.65,0.23 2.94,0.32 2.94,3.37l0 13.05c0,2.74 -0.3,3.06 -3.37,3.28l0 0.97 16.7 0c0.3,-1.06 0.96,-4.14 1.19,-5.4l-1.05 -0.14z"/>
   <ellipse class="fil1" cx="172.91" cy="25.69" rx="11.08" ry="11.28"/>
   <path class="fil2" d="M173.85 25.4l0 3.97c0,0.48 -0.42,0.87 -0.93,0.87l0 0c-0.51,0 -0.93,-0.39 -0.93,-0.87l0 -3.97c-0.81,-0.35 -1.38,-1.13 -1.38,-2.04 0,-1.23 1.04,-2.23 2.31,-2.23 1.28,0 2.31,1 2.31,2.23 0,0.91 -0.57,1.69 -1.38,2.04z"/>
   <path class="fil3" d="M172.7 25.42c-0.76,-0.34 -1.29,-1.13 -1.29,-2.03 0,-1.08 0.75,-1.99 1.74,-2.18 -0.13,-0.03 -0.27,-0.04 -0.41,-0.04 -1.19,0 -2.15,1 -2.15,2.22 0,0.91 0.53,1.69 1.29,2.03l0 3.96c0,0.48 0.39,0.87 0.87,0.87 0.15,0 0.29,-0.04 0.41,-0.1 -0.27,-0.15 -0.46,-0.44 -0.46,-0.77l0 -3.96z"/>
   <g>
    <path class="fil0" d="M173.72 1.84l-24.1 14.67 -0.92 -1.51 24.1 -14.67 1.02 0.07 -0.09 1.45zm-0.92 -1.51l0.53 -0.32 0.48 0.39 -1.02 -0.07zm17.96 15.97l-18.06 -14.52 1.11 -1.38 18.06 14.52 -1.11 1.38z"/>
   </g>
  </g>
 </g>
</svg>
