<?xml version="1.0" encoding="UTF-8"?>
<!DOCTYPE svg PUBLIC "-//W3C//DTD SVG 1.1//EN" "http://www.w3.org/Graphics/SVG/1.1/DTD/svg11.dtd">
<!-- Creator: CorelDRAW 2018 (64-Bit Evaluation Version) -->
<svg xmlns="http://www.w3.org/2000/svg" xml:space="preserve" width="300px" height="86px" version="1.1" style="shape-rendering:geometricPrecision; text-rendering:geometricPrecision; image-rendering:optimizeQuality; fill-rule:evenodd; clip-rule:evenodd"
viewBox="0 0 300 86.17"
 xmlns:xlink="http://www.w3.org/1999/xlink">
 <defs>
  <style type="text/css">
   <![CDATA[
    .str0 {stroke:#3360AB;stroke-width:0.59;stroke-miterlimit:2.61313}
    .fil2 {fill:#FEFEFE}
    .fil1 {fill:#ED3237}
    .fil0 {fill:#3360AB}
    .fil3 {fill:#FEFEFE;fill-rule:nonzero}
   ]]>
  </style>
 </defs>
 <g id="Layer_x0020_1">
  <metadata id="CorelCorpID_0Corel-Layer"/>
  <polygon class="fil0 str0" points="299.71,85.88 0.29,85.88 0.29,0.29 299.71,0.29 "/>
  <path class="fil1" d="M77.79 54.01l-0.43 -0.26c-0.38,-0.22 -9.26,-5.7 -6.17,-22.94 5.52,-17.23 18.84,-17.73 18.98,-17.73l0.51 -0.01 -0.81 2.41 -0.28 -0.02c0,0 0,0 0,0 -0.87,0 -8.22,0.45 -13.64,15.62 -4.49,14.56 2.27,20.13 2.34,20.18l0.17 0.14 -0.67 2.61z"/>
  <polygon class="fil2" points="85.45,29.75 67.1,29.8 68.57,27.5 58.63,31.06 68.53,34.45 67.06,32.06 84.63,32.06 "/>
  <path class="fil2" d="M53.66 46.44c-1.24,0.57 -4,1.22 -7.52,1.22 -9.21,0 -14.8,-5.45 -14.8,-13.84 0,-9.04 6.67,-14.5 15.53,-14.5 3.48,0 5.93,0.7 7.01,1.23l-1.12 3.99c-1.38,-0.57 -3.31,-1.06 -5.68,-1.06 -5.89,0 -10.15,3.5 -10.15,10.1 0,6.06 3.7,9.89 10.11,9.89 2.11,0 4.34,-0.41 5.76,-0.98l0.86 3.95z"/>
  <path class="fil2" d="M97.49 47.22l0 -27.45 6.07 0 7.48 11.77c1.89,3.05 3.61,6.23 4.95,9.2l0.08 0c-0.38,-3.66 -0.47,-7.21 -0.47,-11.4l0 -9.57 4.9 0 0 27.45 -5.5 0 -7.57 -12.1c-1.85,-3.01 -3.74,-6.35 -5.16,-9.44l-0.17 0.04c0.21,3.54 0.3,7.16 0.3,11.68l0 9.82 -4.91 0z"/>
  <polygon class="fil2" points="140.77,23.97 132.51,23.97 132.51,19.77 154.4,19.77 154.4,23.97 146.06,23.97 146.06,47.22 140.77,47.22 "/>
  <path class="fil2" d="M171.65 32.27l3.14 0c3.57,0 5.76,-1.79 5.76,-4.52 0,-2.97 -2.19,-4.39 -5.63,-4.39 -1.68,0 -2.76,0.12 -3.27,0.24l0 8.67zm-5.25 -12.09c2.02,-0.37 4.95,-0.61 8,-0.61 4.17,0 6.97,0.65 8.95,2.2 1.59,1.26 2.49,3.17 2.49,5.53 0,3.55 -2.54,5.95 -5.29,6.85l0 0.12c2.11,0.73 3.36,2.64 4.04,5.29 0.95,3.42 1.72,6.6 2.28,7.66l-5.42 0c-0.43,-0.82 -1.16,-3.06 -1.93,-6.48 -0.86,-3.58 -2.19,-4.72 -5.21,-4.8l-2.66 0 0 11.28 -5.25 0 0 -27.04z"/>
  <path class="fil2" d="M204.55 19.77l0 16.01c0,5.37 2.37,7.85 5.94,7.85 3.83,0 6.1,-2.48 6.1,-7.85l0 -16.01 5.3 0 0 15.68c0,8.47 -4.61,12.21 -11.57,12.21 -6.71,0 -11.06,-3.54 -11.06,-12.17l0 -15.72 5.29 0z"/>
  <path class="fil2" d="M261.03 36.02c-0.18,-3.54 -0.39,-7.82 -0.35,-11.53l-0.13 0c-0.94,3.34 -2.15,7.05 -3.44,10.51l-4.26 11.89 -4.04 0 -3.87 -11.73c-1.12,-3.5 -2.15,-7.24 -2.92,-10.67l-0.09 0c-0.13,3.59 -0.3,7.95 -0.52,11.69l-0.64 11.04 -4.95 0 1.94 -27.45 6.97 0 3.78 11.04c1.03,3.21 1.94,6.47 2.67,9.53l0.13 0c0.77,-2.98 1.76,-6.36 2.88,-9.57l4 -11 6.88 0 1.68 27.45 -5.16 0 -0.56 -11.2z"/>
  <path class="fil3" d="M32.06 67.69l1.86 0 0 -4.04 0.94 0c1.07,0.03 1.56,0.44 1.85,1.72 0.29,1.22 0.53,2.02 0.68,2.32l1.94 0c-0.21,-0.38 -0.49,-1.52 -0.81,-2.74 -0.26,-0.95 -0.7,-1.63 -1.43,-1.89l0 -0.05c0.96,-0.33 1.86,-1.19 1.86,-2.46 0,-0.83 -0.32,-1.51 -0.89,-1.96 -0.68,-0.56 -1.69,-0.79 -3.17,-0.79 -1.08,0 -2.13,0.09 -2.83,0.2l0 9.69zm1.86 -8.45c0.18,-0.04 0.56,-0.08 1.16,-0.08 1.22,0 2.01,0.49 2.01,1.57 0,0.97 -0.79,1.61 -2.06,1.61l-1.11 0 0 -3.1zm13.08 5.4c0.03,-0.16 0.06,-0.42 0.06,-0.75 0,-1.56 -0.8,-3.45 -3.2,-3.45 -2.38,0 -3.63,1.84 -3.63,3.81 0,2.17 1.42,3.58 3.82,3.58 1.07,0 1.96,-0.19 2.6,-0.44l-0.28 -1.23c-0.56,0.2 -1.19,0.32 -2.06,0.32 -1.19,0 -2.24,-0.56 -2.28,-1.84l4.97 0zm-4.97 -1.25c0.07,-0.73 0.56,-1.73 1.72,-1.73 1.25,0 1.55,1.08 1.54,1.73l-3.26 0zm12.4 4.3c-0.07,-0.44 -0.1,-1.07 -0.1,-1.71l0 -2.56c0,-1.54 -0.69,-2.98 -3.07,-2.98 -1.17,0 -2.13,0.3 -2.68,0.62l0.37 1.17c0.5,-0.31 1.26,-0.53 1.99,-0.53 1.31,0 1.51,0.77 1.51,1.24l0 0.12c-2.74,-0.02 -4.4,0.88 -4.4,2.67 0,1.08 0.84,2.12 2.33,2.12 0.96,0 1.74,-0.4 2.19,-0.95l0.05 0 0.12 0.79 1.69 0zm-1.93 -2.49c0,0.11 -0.02,0.26 -0.06,0.39 -0.17,0.51 -0.72,0.97 -1.47,0.97 -0.59,0 -1.06,-0.32 -1.06,-1.01 0,-1.08 1.26,-1.36 2.59,-1.33l0 0.98zm3.81 2.49l1.89 0 0 -10.34 -1.89 0 0 10.34zm12.89 -5.81l-3.87 0 0 -2.54 4.1 0 0 -1.47 -5.97 0 0 9.82 6.2 0 0 -1.47 -4.33 0 0 -2.89 3.87 0 0 -1.45zm1.62 5.46c0.55,0.29 1.35,0.49 2.25,0.49 1.97,0 3.02,-0.93 3.02,-2.21 -0.01,-1.05 -0.64,-1.7 -1.98,-2.17 -0.94,-0.32 -1.29,-0.54 -1.29,-0.99 0,-0.44 0.36,-0.74 1.03,-0.74 0.66,0 1.25,0.23 1.57,0.4l0.37 -1.26c-0.43,-0.22 -1.15,-0.42 -1.97,-0.42 -1.72,0 -2.8,0.97 -2.8,2.22 -0.02,0.83 0.59,1.59 2.04,2.07 0.91,0.31 1.22,0.55 1.22,1.03 0,0.47 -0.37,0.79 -1.19,0.79 -0.67,0 -1.48,-0.26 -1.91,-0.51l-0.36 1.3zm7.13 -8.35l0 1.61 -1.07 0 0 1.34 1.07 0 0 3.33c0,0.93 0.18,1.57 0.58,1.98 0.35,0.36 0.93,0.58 1.62,0.58 0.59,0 1.08,-0.07 1.35,-0.17l-0.03 -1.37c-0.17,0.04 -0.41,0.09 -0.73,0.09 -0.72,0 -0.96,-0.46 -0.96,-1.31l0 -3.13 1.78 0 0 -1.34 -1.78 0 0 -2.03 -1.83 0.42zm10.9 8.7c-0.08,-0.44 -0.11,-1.07 -0.11,-1.71l0 -2.56c0,-1.54 -0.68,-2.98 -3.06,-2.98 -1.17,0 -2.13,0.3 -2.68,0.62l0.36 1.17c0.51,-0.31 1.27,-0.53 2,-0.53 1.31,0 1.51,0.77 1.51,1.24l0 0.12c-2.75,-0.02 -4.41,0.88 -4.41,2.67 0,1.08 0.84,2.12 2.33,2.12 0.97,0 1.74,-0.4 2.2,-0.95l0.05 0 0.12 0.79 1.69 0zm-1.94 -2.49c0,0.11 -0.01,0.26 -0.06,0.39 -0.17,0.51 -0.71,0.97 -1.46,0.97 -0.6,0 -1.07,-0.32 -1.07,-1.01 0,-1.08 1.27,-1.36 2.59,-1.33l0 0.98zm4.04 -6.21l0 1.61 -1.06 0 0 1.34 1.06 0 0 3.33c0,0.93 0.19,1.57 0.58,1.98 0.35,0.36 0.93,0.58 1.62,0.58 0.59,0 1.08,-0.07 1.35,-0.17l-0.03 -1.37c-0.16,0.04 -0.41,0.09 -0.73,0.09 -0.71,0 -0.96,-0.46 -0.96,-1.31l0 -3.13 1.78 0 0 -1.34 -1.78 0 0 -2.03 -1.83 0.42zm11.24 5.65c0.03,-0.16 0.06,-0.42 0.06,-0.75 0,-1.56 -0.8,-3.45 -3.2,-3.45 -2.38,0 -3.63,1.84 -3.63,3.81 0,2.17 1.42,3.58 3.82,3.58 1.07,0 1.95,-0.19 2.59,-0.44l-0.27 -1.23c-0.56,0.2 -1.19,0.32 -2.06,0.32 -1.19,0 -2.24,-0.56 -2.28,-1.84l4.97 0zm-4.97 -1.25c0.07,-0.73 0.56,-1.73 1.72,-1.73 1.25,0 1.55,1.08 1.54,1.73l-3.26 0zm18.64 4.3l1.83 0 -0.6 -9.82 -2.44 0 -1.41 3.93c-0.4,1.15 -0.75,2.36 -1.03,3.43l-0.04 0c-0.26,-1.1 -0.58,-2.26 -0.95,-3.41l-1.34 -3.95 -2.47 0 -0.68 9.82 1.75 0 0.23 -3.95c0.08,-1.34 0.14,-2.9 0.18,-4.18l0.03 0c0.28,1.23 0.64,2.56 1.04,3.82l1.37 4.19 1.45 0 1.49 -4.25c0.46,-1.24 0.89,-2.56 1.22,-3.76l0.05 0c-0.02,1.33 0.06,2.86 0.12,4.12l0.2 4.01zm9.58 0c-0.07,-0.44 -0.1,-1.07 -0.1,-1.71l0 -2.56c0,-1.54 -0.69,-2.98 -3.07,-2.98 -1.17,0 -2.13,0.3 -2.68,0.62l0.37 1.17c0.5,-0.31 1.26,-0.53 1.99,-0.53 1.31,0 1.51,0.77 1.51,1.24l0 0.12c-2.74,-0.02 -4.4,0.88 -4.4,2.67 0,1.08 0.84,2.12 2.33,2.12 0.96,0 1.74,-0.4 2.19,-0.95l0.05 0 0.12 0.79 1.69 0zm-1.93 -2.49c0,0.11 -0.02,0.26 -0.06,0.39 -0.17,0.51 -0.72,0.97 -1.47,0.97 -0.59,0 -1.06,-0.32 -1.06,-1.01 0,-1.08 1.26,-1.36 2.59,-1.33l0 0.98zm3.81 2.49l1.89 0 0 -4.17c0,-0.2 0.01,-0.42 0.07,-0.58 0.2,-0.54 0.72,-1.05 1.47,-1.05 1.02,0 1.42,0.77 1.42,1.79l0 4.01 1.87 0 0 -4.21c0,-2.24 -1.34,-3.04 -2.64,-3.04 -1.23,0 -2.04,0.67 -2.36,1.22l-0.04 0 -0.1 -1.06 -1.64 0c0.04,0.61 0.06,1.29 0.06,2.11l0 4.98zm14.58 0c-0.07,-0.44 -0.1,-1.07 -0.1,-1.71l0 -2.56c0,-1.54 -0.69,-2.98 -3.07,-2.98 -1.17,0 -2.13,0.3 -2.68,0.62l0.37 1.17c0.5,-0.31 1.26,-0.53 1.99,-0.53 1.32,0 1.51,0.77 1.51,1.24l0 0.12c-2.74,-0.02 -4.4,0.88 -4.4,2.67 0,1.08 0.84,2.12 2.33,2.12 0.96,0 1.74,-0.4 2.2,-0.95l0.04 0 0.12 0.79 1.69 0zm-1.93 -2.49c0,0.11 -0.02,0.26 -0.06,0.39 -0.17,0.51 -0.72,0.97 -1.47,0.97 -0.59,0 -1.06,-0.32 -1.06,-1.01 0,-1.08 1.26,-1.36 2.59,-1.33l0 0.98zm8.96 -4.6l-0.08 0.94 -0.03 0c-0.35,-0.58 -1.02,-1.1 -2.14,-1.1 -1.79,0 -3.37,1.41 -3.37,3.74 0,2.01 1.31,3.46 3.15,3.46 0.98,0 1.74,-0.42 2.17,-1.05l0.03 0 0 0.62c0,1.52 -0.92,2.13 -2.14,2.13 -0.9,0 -1.69,-0.27 -2.16,-0.53l-0.41 1.35c0.64,0.38 1.64,0.57 2.59,0.57 1.02,0 2.09,-0.21 2.86,-0.86 0.78,-0.67 1.1,-1.73 1.1,-3.22l0 -4.02c0,-0.97 0.03,-1.55 0.06,-2.03l-1.63 0zm-0.3 3.98c0,0.21 -0.03,0.46 -0.08,0.65 -0.21,0.64 -0.82,1.07 -1.52,1.07 -1.18,0 -1.82,-0.97 -1.82,-2.18 0,-1.44 0.78,-2.32 1.83,-2.32 0.79,0 1.33,0.5 1.53,1.15 0.04,0.15 0.06,0.32 0.06,0.48l0 1.15zm10.18 0.06c0.03,-0.16 0.06,-0.42 0.06,-0.75 0,-1.56 -0.79,-3.45 -3.2,-3.45 -2.38,0 -3.63,1.84 -3.63,3.81 0,2.17 1.42,3.58 3.83,3.58 1.06,0 1.95,-0.19 2.59,-0.44l-0.28 -1.23c-0.56,0.2 -1.19,0.32 -2.05,0.32 -1.19,0 -2.25,-0.56 -2.29,-1.84l4.97 0zm-4.97 -1.25c0.08,-0.73 0.56,-1.73 1.72,-1.73 1.25,0 1.56,1.08 1.54,1.73l-3.26 0zm6.54 4.3l1.83 0 0 -4.2c0,-0.2 0.03,-0.4 0.1,-0.58 0.17,-0.49 0.64,-1.02 1.34,-1.02 0.87,0 1.28,0.7 1.28,1.69l0 4.11 1.83 0 0 -4.26c0,-0.2 0.05,-0.42 0.1,-0.59 0.19,-0.51 0.67,-0.95 1.31,-0.95 0.9,0 1.32,0.7 1.32,1.88l0 3.92 1.83 0 0 -4.18c0,-2.27 -1.25,-3.07 -2.48,-3.07 -0.61,0 -1.09,0.14 -1.5,0.42 -0.35,0.2 -0.65,0.49 -0.91,0.89l-0.03 0c-0.32,-0.79 -1.08,-1.31 -2.06,-1.31 -1.25,0 -1.92,0.65 -2.29,1.2l-0.04 0 -0.08 -1.04 -1.61 0c0.04,0.61 0.06,1.29 0.06,2.11l0 4.98zm19.22 -3.05c0.03,-0.16 0.06,-0.42 0.06,-0.75 0,-1.56 -0.79,-3.45 -3.2,-3.45 -2.38,0 -3.63,1.84 -3.63,3.81 0,2.17 1.42,3.58 3.83,3.58 1.06,0 1.95,-0.19 2.59,-0.44l-0.28 -1.23c-0.56,0.2 -1.19,0.32 -2.06,0.32 -1.18,0 -2.24,-0.56 -2.28,-1.84l4.97 0zm-4.97 -1.25c0.07,-0.73 0.56,-1.73 1.72,-1.73 1.25,0 1.56,1.08 1.54,1.73l-3.26 0zm6.54 4.3l1.89 0 0 -4.17c0,-0.2 0.01,-0.42 0.07,-0.58 0.2,-0.54 0.72,-1.05 1.47,-1.05 1.02,0 1.41,0.77 1.41,1.79l0 4.01 1.88 0 0 -4.21c0,-2.24 -1.34,-3.04 -2.64,-3.04 -1.23,0 -2.04,0.67 -2.36,1.22l-0.05 0 -0.09 -1.06 -1.64 0c0.04,0.61 0.06,1.29 0.06,2.11l0 4.98zm8.96 -8.7l0 1.61 -1.07 0 0 1.34 1.07 0 0 3.33c0,0.93 0.18,1.57 0.58,1.98 0.35,0.36 0.93,0.58 1.61,0.58 0.6,0 1.09,-0.07 1.36,-0.17l-0.03 -1.37c-0.17,0.04 -0.41,0.09 -0.73,0.09 -0.72,0 -0.96,-0.46 -0.96,-1.31l0 -3.13 1.78 0 0 -1.34 -1.78 0 0 -2.03 -1.83 0.42zm16.95 8.7c-0.64,-0.65 -1.21,-1.24 -1.77,-1.84 0.85,-0.93 1.33,-2.17 1.6,-3.68l-1.68 0c-0.18,1.03 -0.48,1.95 -0.93,2.6 -0.56,-0.58 -1.35,-1.45 -2.07,-2.24l0.02 -0.06c1.51,-0.71 2.11,-1.54 2.11,-2.56 0,-1.34 -1.09,-2.2 -2.54,-2.2 -1.91,0 -2.88,1.3 -2.88,2.52 0,0.7 0.33,1.41 0.82,1.97l0 0.04c-1.17,0.6 -1.98,1.53 -1.98,2.84 0,1.41 1.13,2.77 3.4,2.77 1.17,0 2.12,-0.35 2.9,-0.98 0.3,0.32 0.54,0.57 0.8,0.82l2.2 0zm-5.63 -1.17c-1.14,0 -1.89,-0.76 -1.89,-1.73 0,-0.82 0.57,-1.33 1.06,-1.65 0.96,1.07 1.93,2.1 2.56,2.73 -0.39,0.37 -0.99,0.65 -1.73,0.65zm0.28 -7.66c0.71,0 1.02,0.59 1.02,1.11 0,0.68 -0.5,1.14 -1.37,1.66 -0.46,-0.5 -0.75,-0.98 -0.75,-1.57 0,-0.61 0.38,-1.2 1.1,-1.2zm14.97 6.05l0.92 2.78 2.02 0 -3.34 -9.82 -2.39 0 -3.3 9.82 1.94 0 0.88 -2.78 3.27 0zm-2.96 -1.36l0.79 -2.42c0.18,-0.58 0.34,-1.26 0.49,-1.83l0.03 0c0.15,0.57 0.32,1.24 0.52,1.83l0.81 2.42 -2.64 0zm12.02 -6.2l0 4.02 -0.03 0c-0.33,-0.53 -1.06,-0.93 -2.08,-0.93 -1.79,0 -3.34,1.41 -3.33,3.78 0,2.18 1.41,3.63 3.17,3.63 1.09,0 1.98,-0.5 2.43,-1.29l0.03 0 0.07 1.13 1.68 0c-0.03,-0.48 -0.06,-1.27 -0.06,-2l0 -8.34 -1.88 0zm0 7.26c0,0.19 -0.01,0.37 -0.06,0.53 -0.18,0.77 -0.85,1.26 -1.61,1.26 -1.19,0 -1.86,-0.94 -1.86,-2.24 0,-1.32 0.67,-2.34 1.87,-2.34 0.86,0 1.45,0.57 1.62,1.27 0.03,0.14 0.04,0.32 0.04,0.46l0 1.06zm3.05 -4.01l2.76 7.09 1.85 0 2.83 -7.09 -1.98 0 -1.17 3.59c-0.2,0.64 -0.37,1.2 -0.51,1.78l-0.04 0c-0.14,-0.58 -0.29,-1.15 -0.51,-1.78l-1.2 -3.59 -2.03 0zm10.47 7.09l0 -7.09 -1.89 0 0 7.09 1.89 0zm-0.94 -10.05c-0.63,0 -1.05,0.42 -1.05,0.98 0,0.54 0.41,0.96 1.03,0.96 0.66,0 1.07,-0.42 1.07,-0.96 -0.02,-0.56 -0.41,-0.98 -1.05,-0.98zm2.5 9.7c0.55,0.29 1.35,0.49 2.25,0.49 1.97,0 3.02,-0.93 3.02,-2.21 -0.01,-1.05 -0.64,-1.7 -1.98,-2.17 -0.94,-0.32 -1.3,-0.54 -1.3,-0.99 0,-0.44 0.37,-0.74 1.04,-0.74 0.66,0 1.25,0.23 1.57,0.4l0.37 -1.26c-0.43,-0.22 -1.15,-0.42 -1.97,-0.42 -1.72,0 -2.8,0.97 -2.8,2.22 -0.02,0.83 0.59,1.59 2.04,2.07 0.91,0.31 1.22,0.55 1.22,1.03 0,0.47 -0.37,0.79 -1.19,0.79 -0.67,0 -1.48,-0.26 -1.91,-0.51l-0.36 1.3zm10.18 -6.9c-2.24,0 -3.84,1.42 -3.84,3.75 0,2.27 1.61,3.66 3.72,3.66 1.89,0 3.81,-1.17 3.81,-3.77 0,-2.16 -1.48,-3.64 -3.69,-3.64zm-0.05 1.31c1.28,0 1.8,1.26 1.8,2.37 0,1.43 -0.74,2.43 -1.81,2.43 -1.14,0 -1.85,-1.03 -1.85,-2.4 0,-1.18 0.54,-2.4 1.86,-2.4zm5.28 5.94l1.87 0 0 -3.67c0,-0.21 0.03,-0.4 0.06,-0.56 0.17,-0.8 0.78,-1.35 1.68,-1.35 0.23,0 0.4,0.03 0.55,0.06l0 -1.69c-0.15,-0.03 -0.26,-0.04 -0.44,-0.04 -0.8,0 -1.67,0.51 -2.03,1.51l-0.06 0 -0.06 -1.35 -1.63 0c0.04,0.64 0.06,1.32 0.06,2.28l0 4.81zm4.87 -7.09l2.72 6.5c0.09,0.18 0.1,0.28 0.1,0.35 0,0.09 -0.04,0.19 -0.12,0.32 -0.26,0.48 -0.67,0.91 -1.02,1.12 -0.38,0.27 -0.78,0.43 -1.1,0.5l0.43 1.51c0.47,-0.06 1.23,-0.29 1.97,-0.91 0.88,-0.73 1.57,-1.91 2.59,-4.56l1.86 -4.83 -2.01 0 -1.16 3.78c-0.14,0.47 -0.28,0.99 -0.4,1.4l-0.05 0c-0.1,-0.41 -0.25,-0.95 -0.41,-1.38l-1.34 -3.8 -2.06 0z"/>
 </g>
</svg>
